<?xml version="1.0" standalone="no"?>
<!DOCTYPE svg PUBLIC "-//W3C//DTD SVG 20010904//EN"
 "http://www.w3.org/TR/2001/REC-SVG-20010904/DTD/svg10.dtd">
<svg version="1.0" xmlns="http://www.w3.org/2000/svg"
 width="8840.000000pt" height="2671.000000pt" viewBox="0 0 8840.000000 2671.000000"
 preserveAspectRatio="xMidYMid meet">

<g transform="translate(0.000000,2671.000000) scale(0.100000,-0.100000)"
fill="#000000" stroke="none">
<path d="M86155 26295 c-154 -8 -570 -28 -925 -45 -1866 -88 -2747 -142 -2990
-181 -233 -39 -487 -139 -696 -277 -124 -81 -209 -153 -339 -287 -60 -62 -405
-401 -765 -752 -360 -351 -1096 -1068 -1635 -1593 -4173 -4068 -7245 -7039
-8430 -8154 -110 -104 -220 -208 -244 -232 l-45 -43 95 25 c198 54 608 173
686 200 l81 29 5179 5096 c2848 2802 5216 5130 5263 5173 328 299 680 537 957
647 172 68 76 61 2093 154 1810 83 1926 88 1905 79 -5 -2 -815 -114 -1800
-249 -984 -135 -1828 -255 -1875 -266 -542 -126 -1101 -469 -1556 -955 -591
-630 -3204 -3654 -6703 -7759 -371 -434 -683 -801 -695 -814 -14 -15 79 27
264 119 1154 577 2270 1279 3280 2064 441 342 795 635 2125 1756 1180 995
1728 1444 2355 1927 1493 1150 2837 1953 4098 2447 183 72 475 177 574 207
l77 24 59 125 c33 69 130 269 215 445 279 579 316 676 302 795 -18 147 -106
232 -293 281 -103 28 -268 31 -617 14z"/>
<path d="M84075 20265 c-747 -304 -1417 -638 -2360 -1178 -154 -88 -293 -168
-310 -177 -87 -50 -431 -255 -845 -504 -1425 -856 -1729 -1033 -2361 -1379
-1404 -767 -2560 -1309 -3704 -1739 -420 -158 -1305 -443 -1495 -482 -14 -3
-94 -23 -178 -45 -84 -21 -154 -39 -155 -38 -1 0 -35 -8 -74 -17 l-73 -18
-146 -172 -145 -172 -182 27 c-100 15 -200 29 -222 32 -69 8 -345 47 -460 64
-81 12 -225 18 -545 24 -239 4 -460 10 -490 14 -51 6 -169 20 -250 31 -19 2
-67 9 -107 15 l-71 11 -125 -114 c-69 -63 -164 -147 -211 -187 l-85 -72 -358
15 c-3890 171 -6598 298 -9398 441 -1544 79 -2591 136 -4690 255 l-550 32
-17865 238 c-11854 158 -17897 235 -17960 229 -1035 -97 -2313 -322 -3480
-615 -2250 -563 -4241 -1379 -5920 -2427 -756 -472 -1408 -965 -2043 -1544
-380 -346 -682 -561 -1170 -832 -226 -125 -735 -377 -1037 -514 -151 -69 -414
-188 -585 -265 -607 -274 -971 -455 -1303 -646 -673 -389 -1152 -804 -1481
-1286 -133 -194 -264 -581 -302 -893 -19 -157 -7 -418 25 -547 31 -125 112
-296 184 -390 125 -165 357 -332 547 -394 325 -106 2131 -246 4965 -386 841
-41 2400 -110 3085 -135 204 -8 384 -15 515 -20 63 -3 304 -12 535 -20 231 -8
614 -22 850 -30 237 -8 774 -26 1195 -40 l765 -25 45 29 c25 15 144 91 266
168 593 377 1359 820 1979 1144 l179 94 -6534 5 c-6081 6 -6544 7 -6665 23
-385 51 -635 120 -820 229 -90 53 -204 167 -238 238 -32 65 -48 144 -40 192 3
24 -3 57 -23 109 -24 65 -28 89 -28 189 -1 124 12 184 67 315 212 507 987
1166 1917 1631 321 160 522 238 811 314 104 28 253 75 332 106 249 97 596 277
901 469 l104 65 105 0 104 0 244 158 c707 458 1396 917 2673 1781 l858 581
-168 2 -169 3 230 115 c127 63 304 154 395 203 202 109 699 359 910 457 1666
776 3617 1378 5697 1759 860 158 1902 296 2323 307 302 9 29223 -453 29495
-471 439 -28 2849 -175 4575 -280 7393 -447 12929 -758 16015 -900 686 -31
1528 -66 1530 -62 50 65 276 489 345 647 l42 95 541 -22 c1001 -41 3542 -143
3570 -143 28 0 29 -1 22 -42 -15 -90 -86 -352 -137 -507 -51 -154 -53 -162
-33 -165 11 -3 187 -16 390 -30 1600 -113 2958 -313 3756 -555 496 -150 808
-328 899 -515 72 -148 93 -350 51 -511 -26 -101 -104 -259 -173 -349 -59 -79
-177 -201 -258 -267 l-55 -46 -1915 -37 c-1053 -20 -1982 -39 -2064 -43 -133
-5 -146 -7 -123 -19 68 -36 35 -109 -116 -259 -153 -153 -348 -305 -687 -537
l-125 -86 -410 -56 c-2363 -323 -4522 -514 -6740 -596 -197 -7 -174 -7 160 -4
493 6 1339 22 1820 34 1866 48 2590 73 4005 135 1088 49 2488 122 3449 181
228 14 426 24 440 22 16 -2 -60 -37 -223 -101 -1469 -583 -3605 -1206 -5927
-1727 -1172 -263 -3450 -591 -6249 -899 -3497 -385 -8257 -787 -12932 -1091
l-617 -40 -2122 0 -2121 0 -291 -109 c-1026 -385 -1962 -851 -2815 -1402 -105
-68 -189 -125 -187 -127 9 -9 2823 69 4080 113 4457 158 7938 378 10900 691
4853 512 9366 1243 13113 2125 3320 781 6117 1700 8012 2632 l285 140 360 28
c198 15 626 49 950 74 l590 46 160 61 c597 226 1250 518 1490 667 95 58 173
125 186 158 22 59 -27 84 -180 91 -124 5 -1576 -14 -1761 -24 l-114 -6 84 88
c162 172 249 312 291 469 31 116 32 346 1 460 -143 524 -735 938 -1807 1265
-110 34 -159 53 -157 62 2 7 203 400 447 873 1481 2875 3160 6154 3153 6159
-1 2 -115 -42 -253 -99z"/>
<path d="M10240 12064 c-300 -202 -760 -495 -1395 -889 -1065 -660 -1511 -954
-2055 -1354 l-144 -106 2314 -3 2314 -2 39 37 c71 69 328 365 472 545 411 515
780 1089 1102 1716 l115 222 -1259 -1 -1258 0 -245 -165z"/>
<path d="M18560 11287 c-185 -34 -346 -193 -380 -376 -14 -73 -13 -592 1 -666
42 -230 235 -388 470 -386 149 1 260 50 358 157 49 53 97 140 109 199 4 17 7
183 7 370 0 330 -1 342 -23 400 -82 218 -311 345 -542 302z m53 -201 c39 -17
102 -81 116 -119 7 -17 11 -116 11 -243 0 -192 -2 -219 -19 -252 -72 -140
-252 -164 -349 -46 -18 22 -37 55 -42 74 -13 47 -13 405 1 453 12 46 60 102
108 127 43 23 128 26 174 6z"/>
<path d="M20045 11289 c-207 -35 -359 -186 -395 -391 -8 -43 -10 -170 -8 -364
4 -294 4 -300 30 -367 58 -152 172 -255 329 -297 67 -18 207 -13 274 10 145
50 256 162 304 307 19 56 21 86 21 375 1 340 -3 376 -51 474 -89 181 -303 288
-504 253z m69 -219 c20 -14 49 -43 64 -64 l27 -39 3 -228 c3 -210 2 -231 -17
-266 -89 -174 -335 -157 -390 26 -14 49 -15 402 0 454 12 46 59 101 108 128
52 28 155 23 205 -11z"/>
<path d="M21510 11290 c-203 -38 -355 -191 -390 -391 -8 -44 -10 -168 -8 -365
4 -274 6 -304 25 -356 55 -146 151 -242 298 -298 76 -28 217 -31 297 -5 167
54 307 207 332 364 8 55 9 614 0 672 -11 73 -68 181 -128 241 -57 57 -143 109
-211 127 -59 15 -163 21 -215 11z m74 -220 c20 -14 49 -43 64 -64 l27 -39 3
-216 c2 -119 1 -230 -3 -247 -7 -40 -67 -109 -116 -134 -107 -55 -252 11 -288
129 -6 23 -11 114 -11 226 0 112 5 203 11 226 15 49 61 104 107 129 53 29 155
24 206 -10z"/>
<path d="M23015 11293 c-121 -15 -208 -57 -291 -138 -72 -71 -118 -160 -134
-260 -6 -40 -10 -186 -9 -353 1 -270 2 -288 24 -353 28 -83 82 -166 139 -215
51 -44 157 -99 211 -108 44 -8 178 -8 220 0 102 18 247 127 304 228 57 101 61
129 61 482 0 292 -2 328 -20 385 -67 217 -284 360 -505 332z m46 -228 c23 -17
53 -50 66 -74 22 -42 23 -53 23 -262 0 -129 -4 -229 -11 -246 -14 -38 -66 -90
-113 -115 -89 -46 -212 -3 -266 92 -24 43 -25 53 -28 244 -4 222 2 263 50 320
47 58 91 77 170 73 56 -2 74 -8 109 -32z"/>
<path d="M24440 11288 c-122 -19 -261 -121 -328 -240 -53 -92 -63 -172 -62
-489 1 -213 5 -290 16 -334 39 -149 129 -260 260 -322 67 -32 90 -38 173 -43
150 -9 271 34 370 132 60 59 98 121 122 199 19 62 20 89 17 410 l-3 344 -38
78 c-97 199 -301 301 -527 265z m91 -223 c23 -17 53 -50 66 -75 24 -44 24 -49
21 -276 l-3 -231 -28 -40 c-16 -23 -50 -52 -78 -68 -100 -54 -222 -17 -279 85
-24 43 -25 54 -28 235 -4 217 4 274 49 328 48 59 92 78 171 74 56 -2 74 -8
109 -32z"/>
<path d="M25934 11290 c-181 -26 -314 -136 -385 -315 -22 -58 -23 -71 -26
-380 -3 -287 -1 -326 15 -380 57 -184 175 -300 351 -344 246 -61 488 72 571
314 18 54 20 84 20 384 0 354 -4 384 -56 482 -66 123 -209 221 -346 239 -40 5
-77 9 -83 8 -5 0 -33 -4 -61 -8z m68 -225 c23 -17 52 -50 65 -75 24 -44 24
-49 21 -276 l-3 -231 -27 -39 c-47 -67 -90 -89 -174 -89 -64 0 -77 3 -116 30
-23 17 -54 51 -68 75 -25 44 -25 49 -25 265 0 206 1 223 22 260 44 83 105 117
200 112 50 -2 71 -9 105 -32z"/>
<path d="M27450 11296 c-3 -3 -27 -6 -53 -7 -58 -3 -185 -62 -243 -113 -52
-45 -104 -123 -134 -201 -22 -56 -24 -77 -28 -337 -5 -309 4 -411 43 -497 60
-130 171 -229 300 -266 107 -30 263 -17 360 32 107 54 199 164 235 281 19 61
20 91 20 398 -1 363 -2 373 -66 482 -58 99 -176 187 -281 211 -65 14 -147 23
-153 17z m1 -219 c27 -14 57 -42 77 -71 l32 -48 0 -228 c0 -216 -1 -229 -23
-269 -12 -24 -42 -57 -66 -75 -39 -28 -50 -31 -115 -31 -62 0 -78 4 -114 27
-22 15 -54 49 -69 75 l-28 48 0 220 c0 206 1 223 22 260 11 22 32 50 45 62 60
56 164 69 239 30z"/>
<path d="M28865 11289 c-87 -13 -196 -68 -259 -132 -64 -64 -125 -178 -134
-251 -4 -28 -7 -188 -7 -356 1 -293 2 -308 24 -370 48 -135 162 -251 292 -297
68 -24 212 -30 285 -12 169 41 298 172 342 346 15 60 16 108 12 403 -5 307 -7
338 -25 375 -36 73 -94 153 -138 189 -45 37 -158 94 -199 101 -69 10 -140 12
-193 4z m73 -222 c23 -14 54 -48 69 -74 l28 -48 0 -220 0 -220 -28 -48 c-15
-26 -47 -60 -69 -75 -36 -23 -52 -27 -113 -27 -61 0 -77 4 -113 27 -22 15 -54
49 -69 75 l-28 48 0 220 c0 209 1 222 22 262 23 42 68 84 113 102 46 20 143 8
188 -22z"/>
<path d="M30390 11297 c-3 -3 -28 -7 -56 -9 -60 -5 -171 -55 -231 -104 -44
-36 -102 -116 -138 -189 -18 -37 -20 -68 -25 -375 -4 -295 -3 -343 12 -403 23
-91 62 -160 126 -224 90 -90 197 -133 338 -133 230 0 416 146 467 367 18 76
23 521 7 647 -29 233 -195 392 -440 421 -31 3 -58 4 -60 2z m22 -233 c24 -16
54 -50 68 -74 25 -44 25 -49 25 -265 l0 -220 -28 -48 c-15 -26 -47 -60 -69
-75 -36 -23 -52 -27 -113 -27 -61 0 -77 4 -113 27 -22 15 -53 49 -69 75 -27
46 -28 53 -32 221 -4 221 2 269 42 329 46 67 104 96 184 91 50 -3 71 -10 105
-34z"/>
<path d="M31840 11294 c-211 -33 -341 -136 -410 -325 -18 -48 -19 -82 -19
-398 l1 -346 27 -67 c40 -95 92 -160 169 -212 94 -62 171 -86 277 -86 143 0
253 48 353 154 118 125 136 211 130 624 -4 260 -6 281 -28 337 -30 78 -82 156
-134 201 -43 38 -166 102 -207 109 -52 8 -135 12 -159 9z m8 -209 c47 -20 78
-50 105 -100 21 -37 22 -54 22 -260 l0 -220 -28 -48 c-15 -26 -47 -60 -69 -75
-36 -23 -52 -27 -114 -27 -65 0 -76 3 -115 31 -24 18 -54 51 -66 75 -22 40
-23 53 -23 269 l0 228 33 48 c57 85 162 117 255 79z"/>
<path d="M33273 11290 c-127 -17 -274 -121 -337 -239 -52 -98 -56 -128 -56
-482 0 -301 2 -330 20 -385 42 -123 134 -223 258 -282 67 -32 88 -37 170 -40
161 -7 281 42 384 157 53 59 107 159 116 218 4 21 7 180 7 353 0 234 -3 325
-13 355 -55 167 -185 296 -337 333 -64 16 -145 20 -212 12z m45 -205 c47 -20
78 -50 105 -100 21 -37 22 -54 22 -260 0 -216 0 -221 -25 -265 -14 -24 -45
-58 -68 -75 -39 -27 -52 -30 -116 -30 -84 0 -127 22 -174 89 l-27 39 0 243 0
242 30 43 c56 80 163 111 253 74z"/>
<path d="M34723 11285 c-142 -30 -264 -128 -330 -262 l-38 -78 0 -365 0 -365
37 -78 c51 -105 130 -185 235 -234 68 -33 88 -38 171 -41 69 -3 111 0 158 13
121 33 250 141 301 251 49 108 53 139 52 454 0 326 -7 377 -64 475 -60 103
-196 206 -301 229 -61 13 -160 14 -221 1z m76 -205 c54 -27 98 -84 112 -144 7
-31 10 -124 7 -241 -3 -181 -4 -192 -28 -235 -57 -102 -179 -139 -279 -85 -28
16 -62 45 -78 68 l-28 40 0 243 0 242 30 43 c59 83 177 114 264 69z"/>
<path d="M36163 11279 c-159 -49 -276 -163 -323 -317 -18 -56 -20 -95 -20
-380 -1 -343 2 -368 57 -476 39 -77 129 -160 220 -203 68 -33 88 -38 171 -41
116 -5 198 15 280 68 116 75 191 181 218 309 17 80 19 562 3 661 -29 178 -173
336 -347 380 -77 20 -192 19 -259 -1z m106 -199 c50 -25 96 -81 111 -134 8
-28 10 -109 8 -242 -3 -191 -4 -201 -28 -244 -54 -95 -176 -138 -266 -92 -53
27 -111 93 -119 134 -3 18 -5 131 -3 250 l3 216 30 43 c59 83 177 114 264 69z"/>
<path d="M37685 11289 c-84 -12 -192 -68 -258 -134 -62 -60 -120 -169 -131
-245 -4 -25 -7 -181 -6 -347 1 -343 6 -378 78 -489 50 -78 109 -128 202 -172
67 -33 85 -37 171 -40 158 -7 267 36 371 146 66 69 104 141 124 231 17 82 20
577 3 667 -21 118 -98 238 -194 304 -43 30 -133 69 -170 75 -65 10 -137 12
-190 4z m54 -209 c48 -24 98 -83 111 -130 14 -49 13 -404 -1 -451 -36 -118
-181 -184 -288 -130 -42 22 -97 80 -112 118 -15 40 -11 448 5 486 16 41 71 96
111 113 46 20 129 17 174 -6z"/>
<path d="M39157 11290 c-134 -18 -283 -127 -345 -252 -49 -100 -53 -135 -52
-469 0 -349 6 -383 78 -495 50 -77 109 -128 200 -172 65 -31 86 -36 171 -40
159 -7 265 34 370 142 67 71 105 139 126 228 18 77 21 581 4 673 -47 256 -284
421 -552 385z m52 -209 c50 -26 97 -81 110 -128 15 -52 14 -405 0 -454 -45
-147 -231 -197 -342 -91 -63 59 -67 80 -67 317 0 159 4 224 14 248 16 41 71
96 111 113 45 20 129 17 174 -5z"/>
<path d="M40624 11290 c-29 -4 -85 -24 -125 -43 -117 -57 -201 -152 -245 -276
-23 -64 -24 -77 -24 -381 0 -344 5 -386 58 -484 43 -79 126 -157 215 -201 70
-34 86 -38 176 -43 158 -7 267 35 374 143 56 57 113 166 127 244 13 70 13 592
0 662 -35 190 -202 348 -397 378 -78 12 -84 12 -159 1z m55 -209 c50 -26 97
-81 110 -128 14 -48 14 -406 1 -453 -5 -19 -24 -52 -42 -74 -97 -118 -277 -94
-349 46 -17 33 -19 60 -19 252 0 118 4 226 10 240 13 36 80 107 115 122 45 20
130 17 174 -5z"/>
<path d="M42060 11281 c-37 -10 -90 -30 -119 -46 -98 -54 -213 -201 -227 -294
-3 -20 -8 -39 -10 -42 -2 -4 -4 -146 -4 -315 -1 -337 4 -378 58 -478 35 -66
124 -153 191 -190 148 -80 345 -74 483 13 106 67 196 199 218 320 16 88 13
604 -5 679 -61 260 -328 420 -585 353z m88 -200 c20 -11 49 -32 64 -48 52 -55
58 -85 58 -300 0 -109 -4 -214 -10 -233 -13 -49 -66 -109 -114 -131 -107 -48
-235 3 -280 113 -13 30 -16 80 -16 248 0 188 2 215 19 248 23 44 76 97 111
111 43 17 127 13 168 -8z"/>
<path d="M43542 11284 c-176 -39 -323 -187 -361 -364 -18 -83 -15 -631 4 -705
42 -160 166 -287 327 -336 90 -28 224 -23 310 10 123 48 225 153 280 289 22
54 23 71 26 370 2 208 -1 331 -8 367 -40 191 -201 343 -395 374 -77 12 -112
11 -183 -5z m76 -203 c20 -11 49 -32 64 -48 53 -55 58 -84 58 -308 0 -224 -5
-253 -58 -309 -103 -110 -288 -75 -346 66 -13 30 -16 80 -16 245 0 181 3 213
19 248 21 44 61 86 106 109 42 22 127 20 173 -3z"/>
<path d="M45040 11290 c-111 -19 -192 -63 -268 -145 -64 -68 -94 -122 -116
-209 -20 -75 -24 -609 -5 -696 47 -224 240 -380 469 -380 228 0 422 157 469
378 7 32 11 169 11 344 0 328 -7 381 -66 479 -59 98 -165 182 -269 214 -62 18
-167 26 -225 15z m48 -209 c20 -11 49 -32 64 -48 53 -55 58 -84 58 -308 0
-224 -5 -253 -58 -309 -103 -110 -288 -75 -346 66 -13 30 -16 80 -16 245 0
181 3 213 19 248 21 44 61 86 106 109 42 22 127 20 173 -3z"/>
<path d="M46494 11286 c-93 -18 -171 -61 -244 -135 -70 -71 -111 -143 -129
-229 -15 -71 -15 -613 0 -684 47 -221 241 -378 469 -378 228 0 422 157 469
378 18 86 15 624 -4 697 -24 90 -71 170 -139 232 -72 67 -155 107 -253 122
-84 13 -89 13 -169 -3z m49 -195 c40 -16 99 -73 118 -116 16 -35 19 -68 19
-248 0 -226 -5 -255 -58 -311 -103 -110 -288 -75 -346 66 -13 30 -16 80 -16
245 0 181 3 213 19 248 20 44 59 84 106 108 33 18 121 22 158 8z"/>
<path d="M47955 11284 c-84 -19 -151 -54 -217 -113 -67 -60 -103 -115 -133
-206 l-26 -77 3 -327 c3 -316 4 -328 27 -386 52 -131 155 -237 279 -287 48
-19 75 -22 172 -22 97 0 124 3 173 23 125 50 237 165 282 291 18 50 20 85 22
391 2 336 2 337 -22 399 -36 92 -67 139 -127 197 -116 109 -273 152 -433 117z
m58 -193 c40 -16 99 -73 118 -116 16 -35 19 -68 19 -248 0 -226 -5 -255 -58
-311 -103 -110 -288 -75 -346 66 -13 30 -16 80 -16 245 0 181 3 213 19 248 20
44 59 84 106 108 33 18 121 22 158 8z"/>
<path d="M15033 11235 c-78 -21 -130 -51 -190 -107 -59 -57 -92 -107 -119
-188 -18 -53 -19 -119 -19 -1950 l0 -1895 24 -65 c57 -155 178 -261 331 -290
76 -14 1173 -13 1242 1 112 24 217 96 278 191 76 117 71 -41 68 2083 l-3 1900
-22 55 c-46 111 -140 205 -252 252 l-56 23 -615 2 c-507 2 -624 0 -667 -12z
m1219 -34 c172 -22 312 -151 347 -319 8 -38 11 -585 11 -1895 0 -2016 3 -1898
-57 -2010 -34 -62 -112 -132 -183 -166 l-55 -26 -635 0 -635 0 -67 33 c-84 41
-167 128 -200 209 l-23 58 0 1910 0 1910 33 67 c59 121 178 209 305 228 73 11
1077 11 1159 1z"/>
<path d="M66829 10654 c-53 -138 -85 -409 -71 -599 l7 -90 7 145 c9 177 21
277 54 439 24 121 26 162 3 105z"/>
<path d="M21265 7759 c-148 -11 -390 -30 -537 -43 -248 -22 -270 -25 -312 -50
-64 -38 -129 -117 -186 -227 l-50 -97 203 -6 c111 -4 411 -13 667 -21 256 -8
482 -15 503 -15 l37 0 0 240 0 240 -27 -1 c-16 -1 -149 -10 -298 -20z"/>
<path d="M9888 3383 l-3 -337 -75 -12 c-556 -86 -996 -521 -1096 -1084 -22
-124 -22 -334 0 -460 86 -487 430 -885 896 -1034 162 -52 226 -61 420 -61 186
0 268 12 418 61 447 146 783 526 883 997 31 145 31 389 0 534 -97 460 -411
826 -841 983 l-75 28 -3 361 -2 361 -260 0 -260 0 -2 -337z m357 -933 c424
-134 644 -573 496 -990 -40 -113 -85 -184 -176 -275 -162 -162 -353 -235 -580
-222 -121 7 -194 26 -300 77 -231 111 -388 339 -414 600 -24 237 54 458 218
620 109 107 229 172 375 206 92 21 291 12 381 -16z"/>
<path d="M9941 2025 c-148 -42 -241 -176 -229 -330 10 -117 67 -203 170 -255
53 -26 72 -30 142 -30 68 0 90 4 142 29 72 34 126 92 155 170 29 77 23 185
-14 257 -66 130 -224 198 -366 159z"/>
<path d="M38070 3385 c0 -260 -3 -336 -12 -339 -7 -2 -49 -9 -93 -16 -179 -26
-408 -125 -566 -244 -704 -530 -704 -1601 0 -2132 105 -79 295 -175 416 -209
785 -225 1567 265 1700 1064 21 123 16 373 -9 486 -38 168 -109 335 -202 477
-62 94 -258 290 -351 351 -91 60 -214 122 -301 151 l-67 23 -3 361 -2 362
-255 0 -255 0 0 -335z m289 -920 c269 -56 477 -244 567 -510 35 -106 44 -273
20 -388 -77 -374 -403 -625 -786 -604 -200 11 -353 79 -495 222 -100 99 -154
189 -197 325 -20 64 -23 95 -22 215 0 131 2 146 33 235 90 264 293 447 561
504 87 19 232 19 319 1z"/>
<path d="M38133 2030 c-90 -19 -173 -81 -215 -163 -30 -59 -37 -185 -13 -258
25 -74 110 -159 184 -184 73 -24 199 -17 258 13 180 93 224 340 89 499 -58 69
-203 114 -303 93z"/>
<path d="M41020 3385 l0 -335 -22 -4 c-13 -2 -62 -11 -109 -20 -518 -94 -932
-504 -1046 -1036 -25 -119 -26 -420 0 -537 55 -256 171 -475 349 -659 447
-463 1167 -537 1707 -177 108 73 280 243 349 348 101 152 169 314 208 496 14
63 18 127 19 259 0 190 -18 305 -72 454 -131 364 -429 664 -791 796 l-77 28
-3 361 -2 361 -255 0 -255 0 0 -335z m288 -921 c229 -47 414 -189 520 -399 59
-118 77 -196 77 -340 0 -155 -15 -219 -82 -355 -39 -80 -60 -109 -137 -185
-101 -100 -190 -154 -326 -196 -99 -31 -308 -34 -410 -6 -250 70 -441 252
-526 502 -35 103 -44 282 -21 392 54 251 222 455 454 548 139 56 302 70 451
39z"/>
<path d="M41082 2030 c-148 -31 -246 -154 -246 -310 0 -123 62 -227 167 -282
59 -30 185 -37 258 -13 74 25 159 110 183 183 25 73 19 190 -12 253 -62 126
-210 198 -350 169z"/>
<path d="M19872 2303 c19 -139 70 -423 104 -577 125 -561 285 -910 459 -998
65 -34 668 -130 1015 -163 36 -3 82 -8 103 -11 l37 -6 -2 713 -3 713 -195 23
c-359 42 -679 103 -972 183 -156 43 -408 127 -497 166 -29 13 -54 24 -56 24
-1 0 2 -30 7 -67z"/>
</g>
</svg>
